<?xml version="1.0" encoding="UTF-8"?>
<svg id="b" data-name="Layer 2" xmlns="http://www.w3.org/2000/svg" viewBox="0 0 212 212">
  <g id="c" data-name="Layer 2">
    <g>
      <path d="M116.42,133.64c-.93.45-1.41.19-1.53-.88-.15-1.39-.36-2.78-.61-4.15-.35-1.89-.21-3.7.91-5.59-1.55.71-2.32,1.8-2.87,3.1-.77,1.82-.7,3.73-.68,5.64.02,2.27-.56,3-2.77,3.33-5.33.8-10.59,2.02-15.97,2.48-.76.06-1.52.13-2.42.2.2-.6.36-1.09.52-1.59,2.98-8.72-.91-16.69-9.64-19.58-1.25-.41-1.59-.86-1.45-2.17.8-7.22,1.33-14.45,1.45-21.72,0-.16,0-.31,0-.82-.8,1.06-1.44,1.86-2.04,2.7-3.57,5.01-6.84,10.22-9.96,15.53-.36.62-.76,1.22-1.14,1.82-1.92-.98-3.58-.13-5.11.88-1.55,1.02-3.26,1.76-4.79,2.82-1.15.79-1.14.8-.26,1.8-.35.38-.74.24-1.14.13-5.07-.18-9.37,1.62-13.08,5.25-.86-2.9-1.24-5.7-1.31-8.52-.25-10.2,3.79-18.77,10.34-26.27,8.8-10.09,20.03-16.27,32.83-19.7,13.3-3.56,26.82-4.78,40.54-3.34,3.38.35,6.72.99,10.01,1.85.68.18,1,.36.74,1.19-2.35,7.36-4.66,14.73-6.98,22.1-.02.08-.08.15-.2.36-3.38-4.8-8.42-7.09-13.81-9.21,2.4-1.34,4.62-2.59,6.84-3.84-1.89-.17-3.7.21-5.47.62-9.79,2.27-17.3,7.64-22.15,16.53-2.44,4.47-3.29,9.24-2.38,14.31.88-2.28,1.18-4.76,2.28-7.17.51,1.97.87,3.78,1.85,5.4,3.21,5.26,7.97,7.67,14.04,7.7,2.79.02,5.5-.46,8.13-1.37,6.28-2.16,12.27-4.96,17.93-8.44,1.89-1.16,3.31-2.73,4.41-4.66,1.61-2.82,3.77-5.02,7.32-5.62-.87-.73-1.65-1.35-2.39-2.02-1.55-1.41-2.15-3.11-1.47-5.17.62-1.89,1.23-3.79,1.84-5.69.85-.96,1.4-2.11,2.08-3.18,1.16-1.83,2.42-3.57,4.04-5.03,10.42,4.03,16.43,12.09,20.42,22.25-4.72-.27-8.95.93-12.97,3.02-4.95,2.58-9.22,6.04-13.12,9.98-4.31,4.36-8.01,9.23-11.51,14.25-.95,1.36-2.07,2.59-3.33,3.67-.7.6-1.45,1.31-2.49.81-1.12-.54-1.68-1.52-1.78-2.75-.07-.82.12-1.6.41-2.37,1.12-3.05,2.95-5.62,5.26-7.86.54-.53,1.12-1.02,1.71-1.55-2.78-.11-7.48,3.44-10.98,8.28-.32.27-.74.36-1.05.69-2.74,2.98-5.22,6.12-6.35,10.11-.15.53-.24,1.08-.7,1.46Z" fill="#f8f8ee" stroke-width="0"/>
      <path d="M124.89,134.71c-2.41,7.75-4.88,15.48-8.76,22.66-5.67,10.48-14.21,17.3-25.89,19.94-11.37,2.57-23.2-3.13-28.43-13.55-2.77-5.51-3.41-11.32-2.67-17.36.86-7.05,3.55-13.53,6.33-19.96,3.08-7.11,7.04-13.75,10.97-20.41.06-.11.13-.21.3-.28-1.46,10.15-2.56,20.24,2.1,30.28-3.28-2.04-5.63-4.47-7.7-7.66-2.18,6.62-4.65,12.85-5.51,19.55-.71,8.4,1.8,15.53,8.63,20.72,4.69,3.57,10.07,4.58,15.81,3.16,10.06-2.49,17.09-8.53,20.98-18.16.97-2.39,1.96-4.77,2.54-7.3.7-1.95,1.4-3.9,2.1-5.84.26-.47.67-.8,1.18-.9,2.8-.54,4.72-2.38,6.53-4.38.31-.35.59-.75,1.07-.86.25-.06.54-.06.43.36Z" fill="#fb4137" stroke-width="0"/>
      <path d="M77,139.89c2.4,1.05,4.84,1.85,7.41,2.2,4.08.56,8.13.34,12.13-.64.78-.19,1.11-.02,1.43.71,1.82,4.17,4.92,6.95,9.28,8.26.99.29,1.15.66.73,1.58-1.61,3.54-3.52,6.85-6.53,9.45-3.73,3.22-8.07,3.75-12.68,3-5.62-.91-10.27-3.61-13.98-7.94-.38-.45-.91-.82.05-1.3,4.89-2.44,5.33-6.99,3.88-11.43-.44-1.33-1.04-2.59-1.73-3.88Z" fill="#abada8" stroke-width="0"/>
      <path d="M132.48,148.69c3.11-.82,6.23-1.6,9.32-2.48,11.08-3.18,21.76-7.39,32.05-12.58,1.75-.88,1.79-.88,1.69,1.12-.08,1.44-.2,2.88-.72,4.25-.93.42-1.49,1.25-2.11,2-3.05,3.69-6.87,6.27-11.32,7.99-3.77,1.46-7.63,2.61-11.63,3.29-4.58.78-8.92,2.42-13.29,3.92-1.41.48-2.88.75-4.34,1.01-.73.13-1.49.18-1.98-.5-.45-.61-.07-1.23.19-1.8.4-.89.86-1.76,1.3-2.63.56-1.12,1.26-2.22.84-3.57Z" fill="#f8f8ee" stroke-width="0"/>
      <path d="M132.48,148.68c.91.58.89,1.32.43,2.2-.76,1.47-1.5,2.96-2.22,4.45-.17.36-.61.73-.27,1.15.36.44.9.38,1.42.27,3.17-.62,6.25-1.51,9.26-2.72,3.2-1.29,6.61-1.84,9.96-2.54,6.53-1.37,12.81-3.36,18.13-7.59,1.6-1.27,2.9-2.86,4.12-4.49.42-.56.85-.82,1.5-.42-.44,2.38-1.57,4.48-2.61,6.62-5.86,4.05-12.23,6.97-19.25,8.3-2.24.43-4.54.56-6.77,1.14-1.77.46-3.48,1.05-5.05,2.01-7.05,1.88-13.91,4.26-20.34,7.76-2.22,1.21-4.4,2.51-6.89,3.94.33-.49.48-.75.67-.97,4.15-4.98,7.04-10.66,9.25-16.71.29-.78.67-1.09,1.51-1.2,2.39-.32,4.76-.78,7.13-1.19Z" fill="#e2e4db" stroke-width="0"/>
      <path d="M146.48,60.12c.83,2.59-.17,4.81-1.44,6.96-.32.54-.84.78-1.51.76-1.16-.04-1.6.8-1.89,1.73-.27.89-.6,1.78.45,2.48.74.49.81,1.34.84,2.16.61.68.22,1.38-.02,2.03-2.37,6.42-4.25,12.99-6.53,19.44-.59,1.68-1.04,3.41-1.67,5.08-.35.93-.78,1.79-1.47,2.5-1.85,1.22-3.92,1.96-6.27,2.87,5.22-16.14,10.57-31.95,15.5-48.03,1.23,1.09,2.45,1.91,4.01,2.02Z" fill="#fa4038" stroke-width="0"/>
      <path d="M80.19,65.22c-4.13,1.35-8.07,3.11-11.93,5.04-.41.21-.69.14-1.01-.16-6.88-6.15-15.13-9.94-23.46-13.58-1.03-.45-2.09-.86-3.37-1.38,2.39-.18,4.52.08,6.65.24,7.63.57,15.19,1.58,22.48,4.06,3.42,1.16,6.8,2.42,9.66,4.73.36.29.77.53.99,1.06Z" fill="#f8f8ed" stroke-width="0"/>
      <path d="M29.75,73.1c2.58-1.11,5.24-1.75,7.92-2.3,5.87-1.21,11.76-1.68,17.68-.43,2.55.54,4.95,1.44,7.05,3.19-3.1,1.92-5.93,4.08-8.66,6.37-.37.31-.61.29-.97.04-6.09-4.22-13.11-5.58-20.26-6.52-.92-.12-1.84-.23-2.77-.34Z" fill="#f8f8ed" stroke-width="0"/>
      <path d="M113.58,146.35c.09,1.88-.66,3.58-1.21,5.3-1.18,3.62-2.92,6.97-5.24,9.99-3.4,4.42-7.83,7.47-13,9.47-2.95,1.14-6,1.92-9.18,1.77-4.86-.23-9.16-1.86-12.76-5.27-3.51-3.32-5.82-7.25-6.65-12.03-.44-2.56-.49-5.11.09-7.66-.26,5.63,1.35,10.7,4.94,15.02,5.75,6.93,14.13,8.85,22.96,5.48,8.91-3.41,14.78-9.85,18.5-18.46.52-1.2,1.04-2.41,1.55-3.62Z" fill="#e62c25" stroke-width="0"/>
      <path d="M98.49,61.46c-3.86.53-7.63,1.12-11.34,2-.48.12-.94.25-1.32-.34-3.27-5.02-7.62-8.96-12.38-12.51-.09-.07-.14-.19-.29-.4,9.51,1.56,17.82,5.51,25.34,11.25Z" fill="#f8f8ed" stroke-width="0"/>
      <path d="M24,87.33c8.05-3.39,16.17-5.85,25.16-3.08-2.13,2.41-4.08,4.81-5.72,7.44-.2.33-.36.35-.7.15-5.63-3.38-11.86-4.16-18.25-4.23-.15,0-.35.07-.49-.27Z" fill="#f7f8ed" stroke-width="0"/>
      <path d="M50.62,131.33c1.1,2.53,2.62,4.65,5.33,5.65.89.33.34.95.19,1.37-1.21,3.56-1.87,7.22-2,10.98-.03,1,0,2.01-.14,3.05-2.35-2.45-4.19-5.18-5.38-8.33-.03-.34,0-.7-.12-1-1.48-3.36-.34-6.69.13-10.01.11-.78.39-1.58,1.28-1.89.26-.09.5,0,.7.17Z" fill="#bdbfb8" stroke-width="0"/>
      <path d="M37.16,108.24c-4.19-6.13-10.28-6.86-16.73-6.71.03-.48.44-.49.7-.61,5.33-2.57,10.8-4.5,16.87-3.76,2.43.3,2.46.28,1.57,2.48-1.09,2.71-1.74,5.55-2.42,8.6Z" fill="#f8f8ed" stroke-width="0"/>
      <path d="M160.31,120.47c-2.65-3.65-5.95-6.41-10.22-8.13,2.63-2.88,5.47-5.32,8.83-7.46,1.66,5.17,1.83,10.32,1.39,15.59Z" fill="#f8f8ee" stroke-width="0"/>
      <path d="M141.15,157.05c.76-1.6,2.41-1.79,3.81-2.21,2.43-.73,4.97-.96,7.47-1.4,2.99-.52,5.92-1.44,8.81-2.42,3.1-1.05,5.74-2.9,8.5-4.55.76-.46,1.55-.88,2.49-.86-1.48,2.96-3.58,5.43-6.01,7.65-.33.3-.71.41-1.15.44-7.96.57-15.88,1.45-23.65,3.35-.08.02-.17,0-.25,0Z" fill="#d5d7cf" stroke-width="0"/>
      <path d="M133.25,103.26c1.66-4.85,3.34-9.7,4.97-14.56,1.2-3.58,2.35-7.17,3.51-10.76.4-1.25,1.08-2.4,1.21-3.74.79-1.36.99-2.94,1.54-4.39.47-1.24,1-2.3,2.34-2.74-1.51,4.8-3.02,9.61-4.55,14.41-1.96,6.13-4.03,12.23-5.85,18.4-.54,1.82-1.53,2.8-3.17,3.37Z" fill="#e42b24" stroke-width="0"/>
      <path d="M172.42,113.12c-.65-1.06-1.31-2.09-1.92-3.14-1.47-2.52-3.42-4.63-5.6-6.53-.77-.67-.54-.94.16-1.32,1.43-.78,2.91-1.33,4.56-1.42.95-.05,1.49.33,1.91,1.12,1.57,2.98,1.72,6.16,1.34,9.4-.07.62-.05,1.28-.46,1.89Z" fill="#f8f8ed" stroke-width="0"/>
      <path d="M150.59,131.02c-1.93-2.32-3.85-4.15-6.02-5.71-.27-.2-.54-.41-.82-.61q-1.97-1.4-.53-3.46c1-1.42,2.01-2.82,3.37-4.17,2.26,4.34,3.87,8.72,3.99,13.95Z" fill="#f7f7ed" stroke-width="0"/>
      <path d="M56.93,117.59c.25-.04.49-.08.98-.17-.48-.09-.72-.11-.94-.18-.67-.21-.84-.55-.23-1.04.26-.21.53-.43.82-.59,2.73-1.56,5.24-3.53,8.28-4.52,1.03-.33,1.91-.29,2.39.87-1.26,2.33-2.52,4.66-3.8,6.99-.17.31-.28.73-.83.46-2.1-1.03-4.38-1.45-6.67-1.81Z" fill="#dee0d8" stroke-width="0"/>
      <path d="M50.62,131.33c-.74-.05-1.07.41-1.24,1.02-.38,1.33-.71,2.69-.79,4.08-.06.96-.01,1.93-.25,2.88-.26,1-.2,1.97.3,2.93.3.57.32,1.22,0,1.82-2.21-4.75-3.06-9.7-2.09-14.88.38-2.01,1.71-3.54,3.79-4.54-.29,2.31-.22,4.52.28,6.7Z" fill="#dfe1d9" stroke-width="0"/>
      <path d="M124.89,134.71c-.2-.19-.4-.12-.54.06-2.15,3.03-5.03,4.96-8.67,5.72.06-.2.12-.4.16-.61.38-1.69,1.18-2.81,3.03-3.42,2.53-.83,3.59-3.25,4.57-5.51.5-1.14,1.28-1.58,2.39-1.78.72-.14.85.07.63.71-.54,1.6-1.05,3.21-1.58,4.82Z" fill="#e32820" stroke-width="0"/>
      <path d="M140.19,143.26c1.95-2.6,3.36-5.43,4.23-8.52.18-.62.35-.8.91-.35,1.39,1.15,2.52,2.49,3.34,4.11.26.52.1.75-.32,1.01-2.55,1.6-5.24,2.88-8.16,3.74Z" fill="#f7f8ed" stroke-width="0"/>
      <path d="M116.42,133.64c.38-3.26,1.9-6.01,3.84-8.55.82-1.07,1.71-2.08,2.59-3.11.43-.51.94-.86,1.66-.6-1.91,3.13-3.47,6.42-4.65,9.88-.57,1.67-1.93,2.12-3.44,2.38Z" fill="#dadbd3" stroke-width="0"/>
      <path d="M155.15,137.55c1-3.04,1.38-5.94,1.83-9.05,1.83,1.48,3.09,3.11,3.53,5.33.08.43-.05.72-.41.97-1.49,1.05-3.02,2.02-4.95,2.75Z" fill="#f7f8ee" stroke-width="0"/>
      <path d="M166.75,131.94c.52-3.12,1.1-5.99,1.02-8.96,1.73.87,3.64,4.24,3.41,5.93-.03.19-.15.41-.3.53-1.21.98-2.44,1.94-4.13,2.51Z" fill="#dbdcd3" stroke-width="0"/>
      <path d="M152.9,73.64c.03,1.24-1.11,1.74-1.72,2.54-1.03,1.34-1.91,2.77-2.78,4.2-.4.65-.81,1.29-1.62,1.48.95-3.02,1.9-6.04,2.83-9.06.14-.45.33-.62.81-.38.82.43,1.66.82,2.49,1.22Z" fill="#dbdcd3" stroke-width="0"/>
      <path d="M155.06,33.05c-4.32-1.88-8.75-1.02-11.95,2.26-2.26,2.32-3.46,5.13-3.83,8.29-.55,4.62.12,8.86,3.81,12.25,1.32,1.21,2.27,2.84,3.39,4.27-.29.36-.3.78-.26,1.21.16,1.63-.39,3.08-1.09,4.5-.42.85-.96,1.37-1.96,1.59-1.77.4-2.88,2.94-1.9,4.38.54.8.96,1.68,1.57,2.43,1.05.02,1.01-.89,1.21-1.5.67-2.01,1.19-4.08,2.76-5.64.85-2.62,1.67-5.26,2.57-7.86.32-.91.24-1.33-.81-1.39-.3-.02-.78-.09-.8-.68,1.68-.02,3.34-.09,4.82-.96,4.98-2.9,8.08-7.09,8.57-12.92.38-4.62-1.98-8.42-6.11-10.21ZM155.23,44.46c-1.11,3.61-3.18,6.38-7.15,7.17-1.25.25-2.43,0-3.79-.83.48-.14.67-.21.86-.24,1-.15.97-.61.58-1.41-1.43-2.95-1.17-5.86.53-8.62,1.45-2.37,3.8-3.07,6.27-1.97,2.31,1.02,3.47,3.4,2.7,5.92Z" fill="#f93a33" stroke-width="0"/>
    </g>
  </g>
  <g id="d" data-name="Layer 3">
    <path d="M106,0C47.46,0,0,47.46,0,106s47.46,106,106,106,106-47.46,106-106S164.54,0,106,0ZM106.5,203c-53.85,0-97.5-43.65-97.5-97.5S52.65,8,106.5,8s97.5,43.65,97.5,97.5-43.65,97.5-97.5,97.5Z" fill="#fff" stroke-width="0"/>
  </g>
</svg>
